<?xml version="1.0" encoding="utf-8"?>
<!-- Generator: Adobe Illustrator 20.1.0, SVG Export Plug-In . SVG Version: 6.00 Build 0)  -->
<svg version="1.1" id="Layer_1" xmlns="http://www.w3.org/2000/svg" xmlns:xlink="http://www.w3.org/1999/xlink" x="0px" y="0px"
	 viewBox="0 0 400 400" style="enable-background:new 0 0 400 400;" xml:space="preserve">
<style type="text/css">
	.st0{fill:#FFFFFF;}
	.st1{fill:#213A52;stroke:#000000;stroke-miterlimit:10;}
</style>
<circle class="st1" cx="200" cy="200" r="148.5"/>
<g>
	<path class="st0" d="M242,183.7c0-32.6-26.5-59.2-59.2-59.2c-32.6,0-59.2,26.5-59.2,59.2c0,11.5,3.4,22.3,9.1,31.4H106v27.7h76.8
		C215.4,242.9,242,216.4,242,183.7z M182.8,215.2c-17.3,0-31.4-14.1-31.4-31.4s14.1-31.4,31.4-31.4c17.3,0,31.4,14.1,31.4,31.4
		S200.1,215.2,182.8,215.2z M308.5,229c0,0.7-0.3,1.3-0.8,1.7l-51.3,39.4c-0.4,0.3-0.8,0.4-1.3,0.4c-0.4,0-0.9-0.1-1.3-0.4
		c-0.8-0.6-1-1.6-0.7-2.4l9.8-24.8h-52.8c0,0,22.9-6.8,30.8-27.7h22l-9.8-24.8c-0.3-0.9-0.1-1.9,0.7-2.4c0.8-0.6,1.8-0.6,2.5,0
		l51.3,39.4C308.2,227.8,308.5,228.4,308.5,229z"/>
</g>
</svg>
