<?xml version="1.0" encoding="utf-8"?>
<!-- Generator: Adobe Illustrator 16.0.0, SVG Export Plug-In . SVG Version: 6.00 Build 0)  -->
<!DOCTYPE svg PUBLIC "-//W3C//DTD SVG 1.1//EN" "http://www.w3.org/Graphics/SVG/1.1/DTD/svg11.dtd">
<svg version="1.1" id="Layer_1" xmlns="http://www.w3.org/2000/svg" xmlns:xlink="http://www.w3.org/1999/xlink" x="0px" y="0px"
	 width="453.517px" height="453.517px" viewBox="120.487 77.967 453.517 453.517"
	 enable-background="new 120.487 77.967 453.517 453.517" xml:space="preserve">
<circle fill="#213A52" stroke="#262626" stroke-miterlimit="10" cx="347.245" cy="304.725" r="226.258"/>
<g>
	<path fill="#FFFFFF" d="M411.237,279.89c0-49.67-40.376-90.198-90.199-90.198c-49.67,0-90.198,40.376-90.198,90.198
		c0,17.521,5.18,33.977,13.865,47.842h-40.681v42.204h117.014C370.709,370.088,411.237,329.712,411.237,279.89z M321.039,327.884
		c-26.358,0-47.842-21.483-47.842-47.842S294.68,232.2,321.039,232.2c26.359,0,47.841,21.483,47.841,47.842
		S347.397,327.884,321.039,327.884z M512.559,348.91c0,1.066-0.457,1.98-1.219,2.59l-78.162,60.031
		c-0.609,0.457-1.219,0.609-1.98,0.609c-0.609,0-1.372-0.152-1.981-0.609c-1.219-0.915-1.523-2.438-1.066-3.657l14.932-37.786
		h-80.447c0,0,34.891-10.36,46.928-42.204h33.52l-14.932-37.786c-0.457-1.371-0.152-2.895,1.066-3.656
		c1.22-0.914,2.743-0.914,3.81,0l78.162,60.03C512.102,347.081,512.559,347.995,512.559,348.91z"/>
</g>
</svg>
