<?xml version="1.0" standalone="no"?>
<!DOCTYPE svg PUBLIC "-//W3C//DTD SVG 20010904//EN"
 "http://www.w3.org/TR/2001/REC-SVG-20010904/DTD/svg10.dtd">
<svg version="1.0" xmlns="http://www.w3.org/2000/svg"
 width="700.000000pt" height="700.000000pt" viewBox="0 0 700.000000 700.000000"
 preserveAspectRatio="xMidYMid meet">
<metadata>
Created by potrace 1.11, written by Peter Selinger 2001-2013
</metadata>
<g transform="translate(0.000000,700.000000) scale(0.100000,-0.100000)"
fill="#000000" stroke="none">
<path d="M3385 6104 c-673 -37 -1258 -296 -1725 -764 -426 -425 -680 -953
-751 -1555 -6 -55 -12 -183 -12 -285 0 -102 6 -230 12 -285 71 -602 325 -1130
751 -1555 425 -426 953 -680 1555 -751 129 -15 441 -15 570 0 602 71 1130 325
1555 751 426 425 680 953 751 1555 6 55 12 183 12 285 0 102 -6 230 -12 285
-71 602 -325 1130 -751 1555 -376 377 -832 620 -1350 719 -177 34 -444 54
-605 45z m67 -1312 c184 -50 349 -145 481 -277 219 -221 330 -529 297 -830
-14 -136 -41 -229 -100 -350 -143 -294 -407 -499 -727 -564 -97 -20 -133 -21
-827 -21 l-726 0 0 245 0 245 230 0 c127 0 230 2 230 5 0 3 -15 36 -34 73
-194 387 -139 820 148 1156 138 161 380 296 600 336 89 16 341 5 428 -18z
m1484 -1425 c311 -239 460 -359 462 -373 2 -17 -81 -86 -446 -366 -247 -190
-458 -351 -469 -356 -31 -17 -57 7 -51 44 3 16 41 120 86 232 l80 202 -462 0
-461 0 56 24 c205 84 365 225 455 401 l31 60 187 3 c173 2 188 4 183 20 -2 9
-39 104 -81 210 -42 106 -76 201 -76 211 0 19 18 41 35 41 6 0 218 -159 471
-353z"/>
<path d="M3085 4319 c-145 -29 -308 -156 -373 -289 -34 -69 -62 -179 -62 -245
0 -125 65 -286 152 -374 110 -112 214 -160 368 -168 168 -9 295 40 416 161
240 241 201 637 -82 832 -110 76 -285 110 -419 83z"/>
</g>
</svg>
